<?xml version="1.0" encoding="UTF-8"?><svg xmlns="http://www.w3.org/2000/svg" viewBox="0 0 453.6 433"><defs><style>.cls-1{fill:#fff;}.cls-2{fill:#aad2db;}.cls-3{fill:#85c5d3;}</style></defs><g id="Avatars"><path class="cls-3" d="m342.2,409.6c.1-.2.3-.4.4-.6-.2.3-.3.5-.4.6Z"/></g><g id="Dolphins"><g><path class="cls-3" d="m291.4,312c3.1-1.7,5.3-4.5,7.2-9.9,7.2-20.4,7.6-101.7-70-152-18.7-12.1-43.2-14.4-59.5-18.2,5.4,18.4,6.2,24.5,7.2,26.9,1.1,2.7,3,9.4,6.8,21.2-23.6,0-49.8-23.4-61.6-45.3-17,4.1-45.3,18.5-78.1,63.8-7.3-5.5,1-39.4,1.5-41.7h0c-4-24.7-10.2-50.9,17.8-77.3,29.7-28,49.9-39.1,92.9-45.1,9.6-1.4,67.4,10.7,67.4,10.7,19.2-19.2,39.5-28.9,67.6-17.8-27.6,27.3-14.5,57.1-14.5,57.1h0c16.2,20.1,37.4,43.2,45.1,75.3,24.6,101.4-10.7,129.8-9.4,151.7"/><path class="cls-2" d="m291.4,312c3.1-1.7,5.3-4.5,7.2-9.9,7.2-20.4,7.6-101.7-70-152-18.7-12.1-43.2-14.4-59.5-18.2,5.4,18.4,6.2,24.5,7.2,26.9,1.1,2.7,3,9.4,6.8,21.2-23.6,0-49.8-23.4-61.6-45.3-17,4.1-45.3,18.5-78.1,63.8-7.3-5.5,1-39.4,1.5-41.7h0c0-.1,81.1-116,185-51.8,104,64.2,73.1,206.9,73.1,206.9"/><path class="cls-1" d="m114.7,98c5.7-2.5,11.6-4.5,17.6-6.2,6-1.7,12.1-3,18.3-4,12.3-1.9,24.9-2.4,37.4-1.1,12.5,1.2,24.8,4.6,36.2,9.8,11.4,5.3,21.9,12.6,30.8,21.5,4.5,4.4,8.6,9.2,12.4,14.2,3.7,5,7.2,10.3,10.3,15.7,3,5.5,5.9,11,8.4,16.8,1.3,2.8,2.4,5.8,3.6,8.7,1.1,2.9,2.1,5.9,3.2,8.8,4,11.8,7,24,9.4,36.2,2.3,12.2,4,24.6,5.1,37-1.7-12.3-3.7-24.6-6.4-36.7-2.6-12.1-5.9-24.1-10.1-35.7-4.2-11.6-9.2-23-15.4-33.6-3.1-5.3-6.5-10.5-10.2-15.4-3.7-4.9-7.8-9.5-12.2-13.8-8.7-8.7-18.9-15.8-30-21.1-11.1-5.3-23.1-8.6-35.3-10.1-6.1-.8-12.3-1.1-18.5-1-6.2,0-12.3.6-18.5,1.4-12.3,1.6-24.4,4.5-36.1,8.8Z"/><path class="cls-3" d="m311.4,312c1.3,21.3,35.4,34.3,38.1,65.1,1.4,16.4-5,28.5-6.9,31.8,11.1-20.6-77.9-87-104.9-51.9-2.7,3.5-3.9-19.2,16.8-30.7,19.6-10.9,29.9-10.1,36.4-13.8"/></g></g></svg>