<svg id="Layer_1" xmlns="http://www.w3.org/2000/svg" viewBox="0 0 98.8 98.8">
            <path fill="#e4a621" d="m59.5,69.2c-.4-1.1-.8-2.4-1.2-3.9,0-.2,0-.4-.1-.6-.1-.5-.2-.8-.3-1-.2-.2-.4-.5-.6-.8l-.2-.3c-.3-.4-.6-.8-1-1.2-.8-.9-1.5-1.7-2.3-2.6l-.2-.2c-.2-.3-.5-.6-.7-.8-.3-.4-.6-.7-.9-1-.5-.6-1.1-1.2-1.6-1.9-.2,8.1-.9,13.9-2,17.3-1.4,4.1-3.9,6.2-7.7,6.2s-6.4-2.2-7.8-6.6c-1.3-4.6-2-13-2-25s.1-10,.3-13.9c-.2-.2-.3-.4-.5-.5l-.2-.3c-2.4-2.7-5-5.7-7.6-8.6l-.3-.4c-.4-.5-.9-1-1.4-1.5-1.3,5.9-2,13.5-2,22.9,0,16.4,1.6,27.8,4.8,34.2,3.3,6.5,8.9,9.8,16.8,9.8s13-3.1,16.2-9.1c1.2-2.2,2.2-5,2.9-8.4-.2-.5-.4-1.1-.6-1.6Zm1-44.4c-1-5.8-2.6-10.3-4.8-13.4-3.3-4.7-8.4-7.1-15.3-7.1s-13.1,3.1-16.4,9.1c-.3.7-.7,1.3-1,2.1.4.4.8.8,1.1,1.2.3.4.7.8,1.1,1.2l.3.3c.5.6,1,1.1,1.5,1.7.4.5.8,1,1.2,1.5l.7.8c.7.9,1.4,1.7,2,2.5.1.1.4.5.8,1,.3-2,.6-3.7,1-5,1.3-4.3,3.9-6.4,7.9-6.4s6.5,2.3,7.8,7c1.2,4.3,1.8,12.8,1.9,25.5,1.2,1.3,2.3,2.6,3.4,3.9l.2.2c.4.5.9,1,1.3,1.5.4.5.8.9,1.2,1.4,1,1.1,1.9,2.2,2.8,3.3.6.7,1.2,1.4,1.8,2.1.1.1.2.2.3.4,0,0,.1.2.2.3.2-3.4.4-7.2.4-11.3,0-10.4-.5-18.2-1.5-23.6Zm.2,35.1c-.1-.1-.2-.2-.3-.3-.6-.7-1.2-1.4-1.8-2.1-.9-1.1-1.8-2.2-2.8-3.2-.4-.5-.8-.9-1.2-1.4-.5-.5-.9-1-1.3-1.5l-.2-.2c-.9-1-1.8-2.1-2.8-3.1,0,.5,0,1,0,1.5,0,1.4,0,2.8,0,4h0c.7.9,1.5,1.7,2.2,2.6.3.4.6.7.9,1.1.2.3.5.5.7.8l.2.2c.7.9,1.5,1.7,2.2,2.6.4.4.7.8,1,1.2l.2.3c.2.3.4.5.6.8.3.3.3.7.5,1.3,0,.2.1.5.2.7.4,1.5.8,2.7,1.1,3.8,0,0,0,.2.1.3.5-2.5.9-5.4,1.1-8.5-.3-.2-.5-.5-.8-.8ZM30.4,25.2c-.7-.8-1.3-1.6-2-2.4l-.7-.8c-.4-.5-.8-1-1.3-1.5-.5-.6-1-1.1-1.5-1.7l-.3-.3c-.3-.4-.7-.8-1.1-1.2-.3-.3-.5-.6-.8-.9-.5,1.3-.9,2.6-1.2,4.1.6.7,1.2,1.3,1.8,2l.3.4c2.6,2.9,5.2,5.9,7.6,8.6v.2c.2-1.8.4-3.4.6-4.8-.7-.8-1.2-1.4-1.4-1.6Z"/>
            <path fill="#e4a621" d="m89.2,85.6c0,1-.4,2-1.3,2.8-1.1,1.1-2.3,2.1-3.5,3-.6.5-1.1.9-1.7,1.4l-.2.2c-.3.3-.9.8-1.6,1-.3,0-.7.1-1,.1-1.1,0-2.1-.5-3.1-1.6-.4-.4-.7-.8-1.1-1.3l-.3-.3c-.2-.2-.4-.5-.6-.7l-1.8-2c-1.7-2-3.5-4-5.2-6.1-2.3-2.8-4.3-6-6.1-9.8-.5-.9-.9-2-1.2-3.1,0-.1,0-.2-.1-.3-.4-1.1-.7-2.3-1.1-3.8,0-.2,0-.4-.2-.7-.1-.6-.2-1-.5-1.3-.2-.3-.4-.5-.6-.8l-.2-.3c-.3-.4-.7-.9-1-1.2-.8-.9-1.5-1.7-2.2-2.6l-.2-.2c-.2-.3-.5-.6-.7-.8-.3-.3-.6-.7-.9-1.1-.7-.8-1.5-1.7-2.2-2.5h0s-.8-1-.8-1c-.7-.8-1.4-1.6-2.1-2.4-1.2-1.4-2.3-2.7-3.5-4l-3.3-3.7c-1.3-1.4-2.5-2.8-3.8-4.3-.9-1.1-1.8-2.1-2.8-3.2-.8-.9-1.6-1.8-2.3-2.7-.2-.2-.3-.4-.5-.6h0c0-.1-.1-.3-.1-.3-2.4-2.7-5-5.7-7.6-8.6l-.3-.4c-.6-.6-1.1-1.3-1.8-2-1.7-1.9-3.6-4.1-5.4-6.2-.4-.5-.9-1-1.4-1.5-.6-.5-1.4-.6-2.3-.7h-.4c-.9-.2-1.7-.6-2.1-1.3-.4-.7-.3-1.6,0-2.4,1-1.8,2.6-2.8,3.7-3.4.4-.2.7-.3,1.1-.3s.8.1,1.2.3c.7.5,1.2,1.3,1.2,2.2v1.1s0,0,0,0c0,1.1.3,1.8.8,2.5.6.7,1.2,1.4,1.8,2.1.7.9,1.4,1.7,2.2,2.5l.3.3c.2.2.3.4.5.6.3.3.6.6.8.9.4.4.7.8,1.1,1.2l.3.3c.5.5,1,1.1,1.5,1.7.4.5.8,1,1.3,1.5l.7.8c.7.8,1.3,1.6,2,2.4.2.2.6.8,1.4,1.6.3.4.7.8,1.1,1.3,2,2.3,4.8,5.6,6.8,7.8l3.4,3.7c.3.3.6.7.9,1,.9,1,1.8,2,2.7,3.1l.4.5c.8,1,1.6,1.9,2.5,2.8.3.4.7.7,1,1.1.9,1,1.8,2.1,2.8,3.1l.2.2c.5.5.9,1,1.3,1.5.4.5.8.9,1.2,1.4,1,1.1,1.9,2.2,2.8,3.2.6.7,1.2,1.4,1.8,2.1.1.1.2.2.3.3.3.3.5.6.8.8.1,0,.2.2.4.2.6.2,1.2.5,1.8.8.9.4,1.8.8,2.7,1.3,2.4,1.2,4.7,2.7,7.1,4.5,3.1,2.3,5.7,5.2,8,7.9l1,1.2c1.5,1.7,3,3.6,4.6,5.3l.3.3c.3.3.6.6.9,1,.6.8.9,1.7.9,2.5Z"/>
          </svg>