<?xml version="1.0" encoding="UTF-8"?>
<svg xmlns="http://www.w3.org/2000/svg" viewBox="0 0 488.9 250.7">
  <defs>
    <style>.cls-1{fill:#fff;}.cls-2{fill:#e3a722;}.cls-3{fill:#dfe1e8;}.cls-4{fill:#e38e22;}.cls-5,.cls-6{fill:#aad2db;}.cls-7,.cls-8{fill:#3ccc95;}.cls-9{fill:#85c5d3;}.cls-8{mix-blend-mode:multiply;}.cls-6{stroke:#aad2db;stroke-miterlimit:10;stroke-width:8.5px;}.cls-10{isolation:isolate;}</style>
  </defs>
  <g class="cls-10">
    <g id="kayak">
      <path class="cls-7" d="m425,136.7c-3.8,2.8-16.9,10.6-53,17.4h0c-2.4.4-4.8.9-7.4,1.3-43.1,7.3-115.2,12.9-234.2,8.9-2.3,0-4.6-.2-6.9-.2-22.3-.8-46.3-2-72-3.5-3.3-.2-6.5-2.1-7.9-5.1-3.9-8.2,8-16.3,37.1-19.1,5.4-.5,20.5-1.6,41-2.9,2.8-.2,5.7-.4,8.7-.6,1.3,0,2.7-.2,4.1-.3,75.5-4.9,202.3-12.4,217.9-13.2.8,0,1.3,0,1.5,0,1.2,0,6.2-.2,12.9-.3,2.2,0,4.7-.1,7.2-.2,19.5-.4,46.6-.3,50.9,3.1,6.5,5.2,4.3,11.4,0,14.7Z"></path>
      <path class="cls-8" d="m117.6,152.1c25.4-2.5,144.9-.9,213.2-7,84.2-7.4,87.8-28.4,94.3-23.2,6.5,5.2,4.3,11.4,0,14.7-9,6.8-71.7,41.9-373.5,23.9-3.3-.2-6.5-2.1-7.9-5.1-3.9-8.2,44.8-.5,74-3.3Z"></path>
      <path class="cls-8" d="m314.3,140.6s-67.3,4.4-115.3,5.5c-15.1.4-28.3.4-36.9-.1-14.2-.9-21.7-3-25.4-5.2-5.7-3.4-3.1-7-3.1-7,.2-.4.6-.8.9-1.2,3.9-.2,8-.5,12.1-.8,12.4-.8,25.8-1.6,39.6-2.5,71.3-4.4,153.8-9.3,166.2-9.9,1.4.5,2.4.9,2.9,1.5,11.5,10.8-41.1,19.7-41.1,19.7Z"></path>
      <path class="cls-1" d="m371.3,140.5l7.6,6.4-6.9,7.2h0c-2.4.4-4.8.9-7.4,1.3l-1-.8,7-7.3-7.5-6.3,7.2-7.9-9.7-5.7,6.3-8.4c2.2,0,4.7-.1,7.2-.2l-5.2,6.9,10.2,6-7.9,8.7Z"></path>
      <g>
        <path class="cls-9" d="m199,146.1c-15.1.4-28.3.4-36.9-.1-14.2-.9-21.7-3-25.4-5.2l10-8.9,4.1-3.7,24.9-14.4s9-5.9,9.8,9.3c.2,3.2.5,5.2.9,6.3,1.6,4.1,4.9-3,9.4,3.2,3.4,4.7,3.7,10,3.3,13.5Z"></path>
        <path class="cls-1" d="m134.8,159.6l-4.4,4.7c-2.3,0-4.6-.2-6.9-.2l-.4-.3,3.4-3.6-9.3-7.8,8-8-8.9-5.5,5.5-5.4c2.8-.2,5.7-.4,8.7-.6l-5,4.9,8.8,5.4-8.7,8.7,9.2,7.7Z"></path>
        <line class="cls-6" x1="172.6" y1="81.5" x2="149.7" y2="99.8"></line>
        <path class="cls-3" d="m169.4,80.4c0,6.5-7.2,16.4-11.7,11.7-4.2-4.3-6.2,2.9-7.7,2.1-1.6-.7-9.5-.8-10.6-2.1-1.7-2,6.5-8.9,6.5-11.7,0-6.5,5.3-11.7,11.7-11.7s11.7,5.3,11.7,11.7Z"></path>
        <path class="cls-3" d="m178.6,79.5c-4.7,6.6-4.8,3-6.3,2-1.4-1-.4-3.6,1.1-5.7,1.5-2.1,3.9-3,5.3-2,1.4,1,1.4,3.5-.1,5.6Z"></path>
        <path class="cls-5" d="m142.3,144.7s18.7-3.9,18.7-6.8v-36.7l-9.3-6.7h-15.6l-5.3,19.7s-7.3,22.6,11.6,30.5Z"></path>
        <path class="cls-4" d="m141,88.2s-6.1-1.8-10.2,2.7-3.4,34.4-3.4,34.4c0,0,7.4,12.1,10.4,12.5,2.9.4,4.8-37.2,4.8-37.2,0,0,2.2-6.3,8.4-4.5s8.8,4.2,8.4,6.2-1.2,32.3,0,34.3,3.7-.7,3.7-.7l-.7-34.4s-7-9.8-16.4-9.4c-9.4.5-5-3.9-5-3.9Z"></path>
        <path class="cls-5" d="m164.3,130.5l-20-23.5c-1.2-2-.3-6.4,1.7-7.6l2.1-1.3c2-1.2,7.4.6,8.6,2.6l12.4,21c.8,1.4,2.3,2.2,3.9,2.1l17.2-1c2.3-.1,4.4,1.7,4.5,4h0c.1,2.3-1.7,4.4-4,4.5l-22.3,1.3c-1.6,0-3.1-.7-3.9-2.1Z"></path>
        <ellipse class="cls-2" cx="156.2" cy="76" rx="17.2" ry="8.7" transform="translate(-12.6 35) rotate(-12.3)"></ellipse>
        <path class="cls-4" d="m146.6,76.8s-5.6-12.3,0-13c5.6-.7,7,1.2,7,1.2,0,0,0-4.1,3.6-3.3s7.2,11.1,7.2,11.1c0,0-5.4,6.9-17.8,4Z"></path>
        <path class="cls-5" d="m228.4,220.3c9.2-.3,11.4-1.3,9.5-8.8-3.3-13-16.4-30.3-24.1-41-.1-.7-2.1-6-3.2-8.9-1.4.2-.9.6-2.1,1.2.9,2.5,1.9,6.1,2.8,8.5.3,13.2,2.1,33.8,7.2,45.8,2.1,4.8,2.8,3.4,10,3.2Z"></path>
        <path class="cls-5" d="m211.3,163.7l-31.8-87.3c-.2-.5-.7-.9-1.3-.8h-.9c-.8.2-1.3,1-1,1.8l32.8,87.2c.2.6.9,1,1.6.7h0c.6-.2,1-.9.7-1.6Z"></path>
        <path class="cls-3" d="m200.9,127.2c-1.2,1.7-3.1,2.6-4.5,2.3s-2.4-.1-2.6-.3c-1-.7-1.5-2.2-1.1-3.6s2.6-1.4,3-2.1c1.5-2.1,3.9-3,5.3-2,1.4,1,1.4,3.5-.1,5.6Z"></path>
      </g>
      <g>
        <path class="cls-5" d="m326.7,139.8c-15,2.1-28.1,3.7-36.7,4.2-14.2.8-21.9-.4-25.9-2.2l8.9-10,3.7-4.1,23-17.3s8.2-6.9,10.8,8.1c.5,3.2,1.1,5.1,1.6,6.1,2,3.9,4.5-3.6,9.7,2.1,3.9,4.3,4.8,9.5,4.8,13.1Z"></path>
        <path class="cls-5" d="m261.4,125.3l61-47.1c.4-.3.5-.8.2-1.3l-.4-.8c-.4-.7-1.2-1-1.7-.6l-60.6,48c-.4.3-.5,1.1,0,1.6h0c.4.5,1.1.7,1.6.3Z"></path>
        <line class="cls-6" x1="282.5" y1="107.7" x2="272.3" y2="99.6"></line>
        <path class="cls-3" d="m289.6,78.1c.8,6.4-5.2,17.1-10.3,13-4.7-3.8-5.8,3.6-7.4,3s-9.5.3-10.8-.9c-1.9-1.8,5.4-9.6,5.1-12.4-.8-6.4,3.8-12.3,10.3-13s12.3,3.8,13,10.3Z"></path>
        <path class="cls-3" d="m287.8,107.7c-7.5,3.1-5.7,0-6.4-1.7s1.6-3.2,4-4.2,4.9-.4,5.5,1.2-.7,3.7-3.1,4.7Z"></path>
        <path class="cls-2" d="m270.2,145s18.1-6.1,17.8-8.9c-.3-2.8-4.3-36.4-4.3-36.4l-10.1-5.5-15.5,1.8-3,20.2s-4.6,23.3,15.1,28.9Z"></path>
        <path class="cls-4" d="m262.3,89.2s-6.3-1.1-9.9,3.9c-3.6,5,.6,34.6.6,34.6,0,0,8.8,11.2,11.8,11.2s.4-37.5.4-37.5c0,0,1.4-6.6,7.8-5.5,6.4,1.1,9.3,3.1,9.1,5.2s2.5,32.2,4.1,34c1.5,1.8,3.6-1.2,3.6-1.2l-4.8-34.1s-8.1-9-17.4-7.4c-9.2,1.6-5.4-3.3-5.4-3.3Z"></path>
        <path class="cls-2" d="m306.4,110.1l-30.7,3.6c-2.3-.1-5.5-3.3-5.4-5.7v-2.5c.2-2.3,4.7-5.8,7-5.7l24.3,1.4c1.6,0,3.1-.7,3.9-2.1l8.7-14.8c1.2-2,3.8-2.7,5.8-1.5h0c2,1.2,2.7,3.8,1.5,5.8l-11.4,19.3c-.8,1.4-2.3,2.2-3.9,2.1Z"></path>
        <path class="cls-3" d="m324.1,77.9c.8,2,.5,4-.6,5s-1.4,1.9-1.7,2c-1.1.4-2.6,0-3.7-1.1s.3-2.9,0-3.7c-.9-2.4-.3-4.9,1.3-5.5s3.7.8,4.6,3.2Z"></path>
      </g>
      <path class="cls-2" d="m271.3,69.8s-4.2-13.8-16.7-4.4c-12.5,9.4-15.1,13-15.1,13,0,0,18.2-3.8,21.3-5.8s10.4-2.9,10.4-2.9Z"></path>
      <path class="cls-2" d="m269.4,68.2s-5.7,4.8-4.8,7.9c1,3.2,1.6,5.4,1.6,5.4l6.4,1.8s4.5-3.9,8.7-4.9c4.2-1,2.4,2.5,2.4,2.5,0,0,1.7-2.6,3.8-2.5,2.1.1,3.6,1.7,3.6,1.7,0,0,5-4.6-1.3-9.4-6.4-4.9-10-7.3-14.1-5.8-4.1,1.5-6.3,3.3-6.3,3.3Z"></path>
    </g>
  </g>
</svg>
