<?xml version="1.0" encoding="UTF-8"?><svg xmlns="http://www.w3.org/2000/svg" viewBox="0 0 488.9 250.7"><defs><style>.cls-1,.cls-2{fill:#e3a722;}.cls-3{fill:#dfe1e8;}.cls-4{fill:#e38e22;}.cls-5,.cls-6{fill:#aad2db;}.cls-7{fill:#85c5d3;}.cls-2{mix-blend-mode:multiply;}.cls-6{stroke-width:8.5px;}.cls-6,.cls-8{stroke:#aad2db;stroke-miterlimit:10;}.cls-8{fill:none;stroke-width:2.8px;}.cls-9{isolation:isolate;}</style></defs><g class="cls-9"><g id="kayak"><path class="cls-1" d="m386.2,164.7c-32.1,13.2-331,15.2-341.7-9.8-13.7-32.1,36.7-55.2,36.7-55.2,0,0,3,4.8,10.4,9.8,9.8,6.7,21.6,9.7,33.4,8.8,2.5-.2,5.1-.4,7.6-.5,116.4-7.7,169.7.8,208.6.4,17.4-.2,31.8-2.2,47.8-8.2,13.7-4.5-1.4-17.9,10.1-8.5,11.5,9.4,34.5,43.6-12.9,63.2Z"/><path class="cls-2" d="m349.9,135.9l-40.5,4.8-87.1,3s-48,1.3-60-1.3c-11.9-2.5-42.2-18.9-28.4-23.2.6-.2,5.2-1,8.4-1.5,2.7-.4,5.3-.7,8-.9,111.9-7,152.5,1.8,190.8,1.3,10.5.8,21.9,1.5,30.4,1.5,20.6,0-21.7,16.2-21.7,16.2Z"/><g><path class="cls-1" d="m222.2,142.2c-15.1.4-28.3.4-36.9-.1-14.2-.9-21.7-3-25.4-5.2l10-8.9,4.1-3.7,24.9-14.4s9-5.9,9.8,9.3c.2,3.2.5,5.2.9,6.3,1.6,4.1,4.9-3,9.4,3.2,3.4,4.7,3.7,10,3.3,13.5Z"/><line class="cls-6" x1="195.8" y1="77.6" x2="172.9" y2="95.9"/><path class="cls-3" d="m192.6,76.5c0,6.5-7.2,16.4-11.7,11.7-4.2-4.3-6.2,2.9-7.7,2.1-1.6-.7-9.5-.8-10.6-2.1-1.7-2,6.5-8.9,6.5-11.7,0-6.5,5.3-11.7,11.7-11.7s11.7,5.3,11.7,11.7Z"/><path class="cls-3" d="m201.8,75.6c-4.7,6.6-4.8,3-6.3,2-1.4-1-.4-3.6,1.1-5.7s3.9-3,5.3-2,1.4,3.5-.1,5.6Z"/><path class="cls-7" d="m165.5,140.8s18.7-3.9,18.7-6.8v-36.7l-9.3-6.7h-15.6l-5.3,19.7s-7.3,22.6,11.6,30.5Z"/><path class="cls-4" d="m164.2,84.4s-6.1-1.8-10.2,2.7c-4.1,4.5-3.4,34.4-3.4,34.4,0,0,7.4,12.1,10.4,12.5s4.8-37.2,4.8-37.2c0,0,2.2-6.3,8.4-4.5,6.2,1.8,8.8,4.2,8.4,6.2-.4,2-1.2,32.3,0,34.3,1.3,2,3.7-.7,3.7-.7l-.7-34.4s-7-9.8-16.4-9.4c-9.4.5-5-3.9-5-3.9Z"/><path class="cls-5" d="m187.5,126.6l-20-23.5c-1.2-2-.3-6.4,1.7-7.6l2.1-1.3c2-1.2,7.4.6,8.6,2.6l12.4,21c.8,1.4,2.3,2.2,3.9,2.1l17.2-1c2.3-.1,4.4,1.7,4.5,4h0c.1,2.3-1.7,4.4-4,4.5l-22.3,1.3c-1.6,0-3.1-.7-3.9-2.1Z"/></g><path class="cls-5" d="m251.5,216.4c9.2-.3,11.4-1.3,9.5-8.8-3.3-13-16.4-30.3-24.1-41-.1-.7-2.1-6-3.2-8.9-1.4.2-.9.6-2.1,1.2.9,2.5,1.9,6.1,2.8,8.5.3,13.2,2.1,33.8,7.2,45.8,2.1,4.8,2.8,3.4,10,3.2Z"/><line class="cls-8" x1="198.9" y1="74.5" x2="238.1" y2="171.7"/><path class="cls-3" d="m224.1,123.3c-1.2,1.7-3.1,2.6-4.5,2.3s-2.4-.1-2.6-.3c-1-.7-1.5-2.2-1.1-3.6s2.6-1.4,3-2.1c1.5-2.1,3.9-3,5.3-2s1.4,3.5-.1,5.6Z"/><g><g><path class="cls-7" d="m316.2,137.7c-10.6,1.5-19.8,2.6-25.9,3-10.1.6-15.5-.3-18.3-1.6l6.3-7.1,2.6-2.9,16.3-12.2s5.8-4.9,7.6,5.7c.4,2.3.8,3.6,1.1,4.3,1.4,2.8,3.2-2.5,6.9,1.5,2.8,3,3.4,6.7,3.4,9.2Z"/><path class="cls-5" d="m267,129.4l46.2-35.4c.3-.2.3-.7.1-1.1l-.3-.7c-.3-.6-1-.8-1.4-.5l-47.3,37.5h2.7Z"/><line class="cls-6" x1="284.9" y1="114.9" x2="277.7" y2="109.2"/><path class="cls-3" d="m290,94c.5,4.5-3.7,12.1-7.3,9.2s-4.1,2.5-5.2,2.1c-1.2-.4-6.7.2-7.6-.6-1.3-1.3,3.8-6.8,3.6-8.8-.5-4.5,2.7-8.7,7.3-9.2,4.5-.5,8.7,2.7,9.2,7.3Z"/><path class="cls-3" d="m288.7,115c-5.3,2.2-4,0-4.5-1.2-.5-1.1,1.1-2.3,2.8-3s3.4-.3,3.9.8c.5,1.1-.5,2.6-2.2,3.3Z"/><path class="cls-1" d="m276.3,141.3s12.8-4.3,12.6-6.3c-.2-2-3-25.8-3-25.8l-7.1-3.9-11,1.3-2.1,14.2s-3.2,16.5,10.7,20.4Z"/><path class="cls-4" d="m270.7,101.9s-4.4-.8-7,2.7.5,24.5.5,24.5c0,0,6.2,7.9,8.3,7.9s.3-26.5.3-26.5c0,0,1-4.6,5.5-3.9,4.5.8,6.6,2.2,6.4,3.7-.1,1.5,1.8,22.8,2.9,24,1.1,1.3,2.6-.8,2.6-.8l-3.4-24.1s-5.7-6.3-12.3-5.2c-6.5,1.1-3.8-2.3-3.8-2.3Z"/><path class="cls-5" d="m301.9,116.7l-21.7,2.6c-1.7,0-3.9-2.4-3.8-4v-1.8c.1-1.7,3.3-4.1,5-4l17.2,1c1.1,0,2.2-.5,2.8-1.5l6.2-10.5c.8-1.4,2.7-1.9,4.1-1.1h0c1.4.8,1.9,2.7,1.1,4.1l-8,13.6c-.6,1-1.6,1.5-2.8,1.5Z"/><path class="cls-3" d="m314.3,93.9c.5,1.4.3,2.8-.4,3.5s-1,1.4-1.2,1.4c-.8.3-1.9,0-2.6-.8s.2-2.1,0-2.6c-.6-1.7-.2-3.4.9-3.9s2.6.6,3.3,2.3Z"/></g><path class="cls-7" d="m296.9,90.3c0,.5-2.6,1.3-6.5,2.1-1.8.4-3.8.7-6,1-5,.7-9.4,1.1-11.5,1-.1-.3-.2-.7-.3-1,1.9-.7,6.3-1.7,11.4-2.4,2.2-.3,4.3-.6,6.1-.7,3.9-.4,6.6-.4,6.7.1Z"/><path class="cls-5" d="m290.4,91.9c0,.1,0,.3,0,.4-1.8.4-3.8.7-6,1-5,.7-9.4,1.1-11.5,1-.1-.3-.2-.7-.3-1-.1-.5-.2-.9-.2-1.4,0-4.3,4-7.9,9-7.9s7.9,2.6,8.8,6.1c.1.6.2,1.1.2,1.7Z"/></g></g></g></svg>