<?xml version="1.0" encoding="UTF-8"?><svg id="Layer_1" xmlns="http://www.w3.org/2000/svg" viewBox="0 0 334.1 105.2"><defs><style>.cls-1{fill:#fff;}</style></defs><path class="cls-1" d="m0,10.6h13.6c4.1,0,7.6.5,10.5,1.4,2.6.9,5,2.5,7,4.7,3.1,3.4,5.3,7.8,6.6,13.3,1.3,5.3,2,12.8,2,22.7s-.7,16.4-2.2,22.1c-1.4,5.5-3.8,9.6-7,12.5-4,3.6-11.2,5.4-21.5,5.4H0V10.6Zm11.1,72.4c6.7,0,11.2-2,13.5-6.1,2.3-4.1,3.5-12,3.5-23.8s-1.1-21.3-3.3-26.1c-2.2-4.7-6.3-7.1-12.3-7.1h-1.4v63.1Z"/><path class="cls-1" d="m93.3,54c0,14.5-1.6,24.8-4.8,30.9-3.2,6.1-8.6,9.1-16.2,9.1s-13.6-3.3-16.8-9.8c-3.2-6.4-4.8-17.8-4.8-34.2s1.6-24.9,4.8-31c3.2-6.1,8.7-9.1,16.4-9.1s12,2.4,15.3,7.1c2.2,3.2,3.8,7.6,4.8,13.4,1,5.4,1.5,13.2,1.5,23.6m-11.6,1.2c0-14.2-.6-23.6-1.9-28.3-1.3-4.7-3.9-7-7.8-7s-6.6,2.1-7.9,6.4c-1.3,4.3-1.9,13-1.9,26s.7,20.3,2,25c1.4,4.4,4,6.6,7.8,6.6s6.3-2.1,7.7-6.2c1.4-4.1,2.1-11.6,2.1-22.6"/><polygon class="cls-1" points="104.2 10.6 115.2 10.6 115.2 50.3 130.6 10.6 141.8 10.6 125.6 50.3 143.1 92.6 130.6 92.6 115.2 50.3 115.2 92.6 104.2 92.6 104.2 10.6"/><path class="cls-1" d="m168.8,10.6h8.6l17.6,82h-10.9l-3.1-16h-16.3l-3.1,16h-10.6l17.9-82Zm10.6,57.5l-2.4-13.1c-1.6-8.9-3-18.4-4-28.5-.5,4.9-1.1,9.9-1.9,15-.8,5-1.7,10.4-2.8,16.1l-2,10.5h13.1Z"/><path class="cls-1" d="m205.8,10.6h10.3l11,32.7c3.2,9.2,6,19.1,8.4,29.6-.9-6.3-1.5-12.1-2-17.2-.4-5.1-.6-10-.6-14.5V10.6h11.1v82h-10.4l-12.4-36.9c-1.1-3.4-2.2-7-3.2-10.6-1-3.6-1.9-7.4-2.8-11.4,0-.5-.2-1.1-.3-1.8s-.3-1.5-.6-2.4c.1.9.2,1.7.3,2.4,0,.7.1,1.2.2,1.7l.6,8.3.6,10.1c0,.6,0,1.3,0,2.1,0,.8,0,1.7,0,2.8l.6,35.8h-10.9V10.6Z"/><path class="cls-1" d="m299.4,75.5c-.4-1.1-.8-2.4-1.2-3.9,0-.2,0-.4-.1-.6-.1-.5-.2-.8-.3-1-.2-.2-.4-.5-.6-.8l-.2-.3c-.3-.4-.6-.8-1-1.2-.8-.9-1.5-1.7-2.3-2.6l-.2-.2c-.2-.3-.5-.6-.7-.8-.3-.4-.6-.7-.9-1-.5-.6-1.1-1.2-1.6-1.9-.2,8.1-.9,13.9-2,17.3-1.4,4.1-3.9,6.2-7.7,6.2s-6.4-2.2-7.8-6.6c-1.3-4.6-2-13-2-25s.1-10,.3-13.9c-.2-.2-.3-.4-.5-.5l-.2-.3c-2.4-2.7-5-5.7-7.6-8.6l-.3-.4c-.4-.5-.9-1-1.4-1.5-1.3,5.9-2,13.5-2,22.9,0,16.4,1.6,27.8,4.8,34.2,3.3,6.5,8.9,9.8,16.8,9.8s13-3.1,16.2-9.1c1.2-2.2,2.2-5,2.9-8.4-.2-.5-.4-1.1-.6-1.6Zm1-44.4c-1-5.8-2.6-10.3-4.8-13.4-3.3-4.7-8.4-7.1-15.3-7.1s-13.1,3.1-16.4,9.1c-.3.7-.7,1.3-1,2.1.4.4.8.8,1.1,1.2.3.4.7.8,1.1,1.2l.3.3c.5.6,1,1.1,1.5,1.7.4.5.8,1,1.2,1.5l.7.8c.7.9,1.4,1.7,2,2.5.1.1.4.5.8,1,.3-2,.6-3.7,1-5,1.3-4.3,3.9-6.4,7.9-6.4s6.5,2.3,7.8,7c1.2,4.3,1.8,12.8,1.9,25.5,1.2,1.3,2.3,2.6,3.4,3.9l.2.2c.4.5.9,1,1.3,1.5.4.5.8.9,1.2,1.4,1,1.1,1.9,2.2,2.8,3.3.6.7,1.2,1.4,1.8,2.1.1.1.2.2.3.4,0,0,.1.2.2.3.2-3.4.4-7.2.4-11.3,0-10.4-.5-18.2-1.5-23.6Zm.2,35.1c-.1-.1-.2-.2-.3-.3-.6-.7-1.2-1.4-1.8-2.1-.9-1.1-1.8-2.2-2.8-3.2-.4-.5-.8-.9-1.2-1.4-.5-.5-.9-1-1.3-1.5l-.2-.2c-.9-1-1.8-2.1-2.8-3.1,0,.5,0,1,0,1.5,0,1.4,0,2.8,0,4h0c.7.9,1.5,1.7,2.2,2.6.3.4.6.7.9,1.1.2.3.5.5.7.8l.2.2c.7.9,1.5,1.7,2.2,2.6.4.4.7.8,1,1.2l.2.3c.2.3.4.5.6.8.3.3.3.7.5,1.3,0,.2.1.5.2.7.4,1.5.8,2.7,1.1,3.8,0,0,0,.2.1.3.5-2.5.9-5.4,1.1-8.5-.3-.2-.5-.5-.8-.8Zm-30.4-34.7c-.7-.8-1.3-1.6-2-2.4l-.7-.8c-.4-.5-.8-1-1.3-1.5-.5-.6-1-1.1-1.5-1.7l-.3-.3c-.3-.4-.7-.8-1.1-1.2-.3-.3-.5-.6-.8-.9-.5,1.3-.9,2.6-1.2,4.1.6.7,1.2,1.3,1.8,2l.3.4c2.6,2.9,5.2,5.9,7.6,8.6v.2c.2-1.8.4-3.4.6-4.8-.7-.8-1.2-1.4-1.4-1.6Z"/><path class="cls-1" d="m329.1,92c0,1-.4,2-1.3,2.8-1.1,1.1-2.3,2.1-3.5,3-.6.5-1.1.9-1.7,1.4l-.2.2c-.3.3-.9.8-1.6,1-.3,0-.7.1-1,.1-1.1,0-2.1-.5-3.1-1.6-.4-.4-.7-.8-1.1-1.3l-.3-.3c-.2-.2-.4-.5-.6-.7l-1.8-2c-1.7-2-3.5-4-5.2-6.1-2.3-2.8-4.3-6-6.1-9.8-.5-.9-.9-2-1.2-3.1,0-.1,0-.2-.1-.3-.4-1.1-.7-2.3-1.1-3.8,0-.2,0-.4-.2-.7-.1-.6-.2-1-.5-1.3-.2-.3-.4-.5-.6-.8l-.2-.3c-.3-.4-.7-.9-1-1.2-.8-.9-1.5-1.7-2.2-2.6l-.2-.2c-.2-.3-.5-.6-.7-.8-.3-.3-.6-.7-.9-1.1-.7-.8-1.5-1.7-2.2-2.5h0s-.8-1-.8-1c-.7-.8-1.4-1.6-2.1-2.4-1.2-1.4-2.3-2.7-3.5-4l-3.3-3.7c-1.3-1.4-2.5-2.8-3.8-4.3-.9-1.1-1.8-2.1-2.8-3.2-.8-.9-1.6-1.8-2.3-2.7-.2-.2-.3-.4-.5-.6h0c0-.1-.1-.3-.1-.3-2.4-2.7-5-5.7-7.6-8.6l-.3-.4c-.6-.6-1.1-1.3-1.8-2-1.7-1.9-3.6-4.1-5.4-6.2-.4-.5-.9-1-1.4-1.5-.6-.5-1.4-.6-2.3-.7h-.4c-.9-.2-1.7-.6-2.1-1.3-.4-.7-.3-1.6,0-2.4,1-1.8,2.6-2.8,3.7-3.4.4-.2.7-.3,1.1-.3s.8.1,1.2.3c.7.5,1.2,1.3,1.2,2.2v1.1s0,0,0,0c0,1.1.3,1.8.8,2.5.6.7,1.2,1.4,1.8,2.1.7.9,1.4,1.7,2.2,2.5l.3.3c.2.2.3.4.5.6.3.3.6.6.8.9.4.4.7.8,1.1,1.2l.3.3c.5.5,1,1.1,1.5,1.7.4.5.8,1,1.3,1.5l.7.8c.7.8,1.3,1.6,2,2.4.2.2.6.8,1.4,1.6.3.4.7.8,1.1,1.3,2,2.3,4.8,5.6,6.8,7.8l3.4,3.7c.3.3.6.7.9,1,.9,1,1.8,2,2.7,3.1l.4.5c.8,1,1.6,1.9,2.5,2.8.3.4.7.7,1,1.1.9,1,1.8,2.1,2.8,3.1l.2.2c.5.5.9,1,1.3,1.5.4.5.8.9,1.2,1.4,1,1.1,1.9,2.2,2.8,3.2.6.7,1.2,1.4,1.8,2.1.1.1.2.2.3.3.3.3.5.6.8.8.1,0,.2.2.4.2.6.2,1.2.5,1.8.8.9.4,1.8.8,2.7,1.3,2.4,1.2,4.7,2.7,7.1,4.5,3.1,2.3,5.7,5.2,8,7.9l1,1.2c1.5,1.7,3,3.6,4.6,5.3l.3.3c.3.3.6.6.9,1,.6.8.9,1.7.9,2.5Z"/></svg>