<?xml version="1.0" encoding="UTF-8"?><svg xmlns="http://www.w3.org/2000/svg" id="kayak" viewBox="0 0 488.9 250.7"><defs><style>.cls-1{fill:#e3a722;}.cls-2{fill:#c4c9d7;}.cls-3{fill:#dfe1e8;}.cls-4{fill:#e38e22;}.cls-5,.cls-6,.cls-7{fill:#aad2db;}.cls-8{fill:#3ccc95;}.cls-6{stroke:#3ccc95;}.cls-6,.cls-7{stroke-width:8.5px;}.cls-6,.cls-7,.cls-9{stroke-miterlimit:10;}.cls-7,.cls-9{stroke:#aad2db;}.cls-9{fill:none;stroke-width:2.8px;}</style></defs><polygon class="cls-2" points="27.4 126.1 41.8 155.3 417.2 162.3 437.6 148.6 448.4 124.4 332.7 143 80.9 136.9 27.4 126.1"/><polygon class="cls-3" points="39.2 117.8 27.4 126.1 102.6 141.3 335.7 138.6 433.4 121.9 433.4 115.8 448.4 121.3 448.4 124.4 296.5 158.8 149.7 158.8 47.2 126.1 39.2 117.8"/><g><path class="cls-5" d="m193.1,146.8c-15.1.4-28.3.4-36.9-.1-14.2-.9-21.7-3-25.4-5.2l10-8.9,4.1-3.7,24.9-14.4s9-5.9,9.8,9.3c.2,3.2.5,5.2.9,6.3,1.6,4.1,4.9-3,9.4,3.2,3.4,4.7,3.7,10,3.3,13.5Z"/><line class="cls-6" x1="166.7" y1="82.3" x2="143.7" y2="100.5"/><path class="cls-3" d="m163.5,81.2c0,6.5-7.2,16.4-11.7,11.7-4.2-4.3-6.2,2.9-7.7,2.1-1.6-.7-9.5-.8-10.6-2.1-1.7-2,6.5-8.9,6.5-11.7,0-6.5,5.3-11.7,11.7-11.7s11.7,5.3,11.7,11.7Z"/><path class="cls-3" d="m172.7,80.2c-4.7,6.6-4.8,3-6.3,2-1.4-1-.4-3.6,1.1-5.7s3.9-3,5.3-2,1.4,3.5-.1,5.6Z"/><path class="cls-8" d="m136.4,145.4s18.7-3.9,18.7-6.8v-36.7l-9.3-6.7h-15.6l-5.3,19.7s-7.3,22.6,11.6,30.5Z"/><path class="cls-4" d="m135.1,89s-6.1-1.8-10.2,2.7-3.4,34.4-3.4,34.4c0,0,7.4,12.1,10.4,12.5,2.9.4,4.8-37.2,4.8-37.2,0,0,2.2-6.3,8.4-4.5s8.8,4.2,8.4,6.2-1.2,32.3,0,34.3,3.7-.7,3.7-.7l-.7-34.4s-7-9.8-16.4-9.4c-9.4.5-5-3.9-5-3.9Z"/><path class="cls-8" d="m158.3,131.2l-20-23.5c-1.2-2-.3-6.4,1.7-7.6l2.1-1.3c2-1.2,7.4.6,8.6,2.6l12.4,21c.8,1.4,2.3,2.2,3.9,2.1l17.2-1c2.3-.1,4.4,1.7,4.5,4h0c.1,2.3-1.7,4.4-4,4.5l-22.3,1.3c-1.6,0-3.1-.7-3.9-2.1Z"/></g><path class="cls-1" d="m142.6,68.9s-5.7,4.8-4.8,7.9,1.6,5.4,1.6,5.4l6.4,1.8s4.5-3.9,8.7-4.9c4.2-1,2.4,2.5,2.4,2.5,0,0,1.7-2.6,3.8-2.5,2.1.1,3.6,1.7,3.6,1.7,0,0,5-4.6-1.3-9.4-6.4-4.9-10-7.3-14.1-5.8s-6.3,3.3-6.3,3.3Z"/><path class="cls-5" d="m222.4,221c9.2-.3,11.4-1.3,9.5-8.8-3.3-13-16.4-30.3-24.1-41-.1-.7-2.1-6-3.2-8.9-1.4.2-.9.6-2.1,1.2.9,2.5,1.9,6.1,2.8,8.5.3,13.2,2.1,33.8,7.2,45.8,2.1,4.8,2.8,3.4,10,3.2Z"/><line class="cls-9" x1="169.8" y1="79.2" x2="209" y2="176.3"/><path class="cls-3" d="m194.9,127.9c-1.2,1.7-3.1,2.6-4.5,2.3s-2.4-.1-2.6-.3c-1-.7-1.5-2.2-1.1-3.6s2.6-1.4,3-2.1c1.5-2.1,3.9-3,5.3-2s1.4,3.5-.1,5.6Z"/><g><g><path class="cls-8" d="m349.9,138.3c-15,2.1-28.1,3.7-36.7,4.2-14.2.8-21.9-.4-25.9-2.2l8.9-10,3.7-4.1,23-17.3s8.2-6.9,10.8,8.1c.5,3.2,1.1,5.1,1.6,6.1,2,3.9,4.5-3.6,9.7,2.1,3.9,4.3,4.8,9.5,4.8,13.1Z"/><path class="cls-5" d="m284.5,123.8l61-47.1c.4-.3.5-.8.2-1.3l-.4-.8c-.4-.7-1.2-1-1.7-.6l-60.6,48c-.4.3-.5,1.1,0,1.6h0c.4.5,1.1.7,1.6.3Z"/><line class="cls-7" x1="305.7" y1="106.2" x2="295.4" y2="98.1"/><path class="cls-3" d="m312.8,76.6c.8,6.4-5.2,17.1-10.3,13-4.7-3.8-5.8,3.6-7.4,3-1.6-.6-9.5.3-10.8-.9-1.9-1.8,5.4-9.6,5.1-12.4-.8-6.4,3.8-12.3,10.3-13s12.3,3.8,13,10.3Z"/><path class="cls-3" d="m311,106.2c-7.5,3.1-5.7,0-6.4-1.7s1.6-3.2,4-4.2c2.4-1,4.9-.4,5.5,1.2s-.7,3.7-3.1,4.7Z"/><path class="cls-1" d="m293.4,143.5s18.1-6.1,17.8-8.9c-.3-2.8-4.3-36.4-4.3-36.4l-10.1-5.5-15.5,1.8-3,20.2s-4.6,23.3,15.1,28.9Z"/><path class="cls-4" d="m285.5,87.7s-6.3-1.1-9.9,3.9c-3.6,5,.6,34.6.6,34.6,0,0,8.8,11.2,11.8,11.2,2.9,0,.4-37.5.4-37.5,0,0,1.4-6.6,7.8-5.5,6.4,1.1,9.3,3.1,9.1,5.2s2.5,32.2,4.1,34c1.5,1.8,3.6-1.2,3.6-1.2l-4.8-34.1s-8.1-9-17.4-7.4c-9.2,1.6-5.4-3.3-5.4-3.3Z"/><path class="cls-2" d="m329.6,108.6l-30.7,3.6c-2.3-.1-5.5-3.3-5.4-5.7v-2.5c.2-2.3,4.7-5.8,7-5.7l24.3,1.4c1.6,0,3.1-.7,3.9-2.1l8.7-14.8c1.2-2,3.8-2.7,5.8-1.5h0c2,1.2,2.7,3.8,1.5,5.8l-11.4,19.3c-.8,1.4-2.3,2.2-3.9,2.1Z"/><path class="cls-3" d="m347.2,76.4c.8,2,.5,4-.6,5s-1.4,1.9-1.7,2c-1.1.4-2.6,0-3.7-1.1s.3-2.9,0-3.7c-.9-2.4-.3-4.9,1.3-5.5,1.6-.6,3.7.8,4.6,3.2Z"/></g><path class="cls-4" d="m328,74.4c.2.7-5.6,1.8-14.2,2.9-3.9.5-8.3,1-13.1,1.4-11,1-20.7,1.5-25.3,1.4-.3-.5-.5-.9-.6-1.4,4.2-1,13.8-2.3,25.1-3.4,4.9-.5,9.4-.8,13.4-1.1,8.6-.5,14.5-.5,14.7.2Z"/><path class="cls-1" d="m313.4,73.5c0,.2,0,.4,0,.6-2.5.5-5.4,1-8.5,1.4-7.1,1-13.3,1.5-16.3,1.4-.2-.5-.3-.9-.4-1.4-.1-.7-.2-1.3-.2-2,0-6.1,5.7-11.1,12.7-11.1s11.1,3.7,12.4,8.7c.2.8.3,1.6.3,2.4Z"/></g></svg>