<?xml version="1.0" encoding="UTF-8"?><svg xmlns="http://www.w3.org/2000/svg" xmlns:xlink="http://www.w3.org/1999/xlink" version="1.1" id="Layer_1" x="0px" y="0px" viewBox="0 0 198 64" style="enable-background:new 0 0 198 64;" xml:space="preserve"><style type="text/css">.st0{enable-background:new ;}	.st1{fill:#A5A5A5;}</style><g><g class="st0"><path class="st1" d="M63.7,16.7c-0.1,2.1,0.3,5.1,0.3,5.1L59.8,21c0,0-0.4-2.5-0.4-4.4c-1.8,0-3.9-0.1-3.9-0.1 c-0.4-0.7-0.1-3.6-0.1-3.6s3.1-0.2,4-0.3c0-2.1,0-5.3,0-5.3L63.6,8c0,0,0.2,2.7,0.2,4.5c1.9,0.1,4.7,0.1,4.7,0.1l-0.2,4 C68.2,16.6,65.4,16.7,63.7,16.7z"/><path class="st1" d="M98.4,15.1L98.4,15.1c-0.5,3.7-1.8,6.6-4,8.8c-1.9,1.9-4.1,2.8-6.8,2.8c-2,0-3.9-0.7-5.4-1.7 c-3.2-2.5-4.3-7.3-4.3-10.8c0-5.6,2.6-9.5,7.7-11.4h0c1-0.4,2-0.5,3-0.5c2.7,0,5.1,1.1,6.9,3.1c1.8,2.1,2.9,4.9,2.9,7.9 C98.6,13.6,98.5,14.3,98.4,15.1z M91.9,8.3c-0.8-1.2-1.7-1.7-2.5-1.7c-0.3,0-0.7,0.1-1.2,0.3l0,0c-3,1.2-4.8,3.7-4.8,7.3 c0,2.9,0.4,5.7,2.4,7.3c0.7,0.6,1.6,0.8,2.3,0.8c1,0,1.9-0.5,2.7-1.6c1-1.2,1.7-3.3,2.2-5.9v0c0.1-0.7,0.1-1.3,0.1-1.7 C93.1,11,92.7,9.4,91.9,8.3z"/><path class="st1" d="M106.3,18.5c0.3,3.2,0.7,6,1,8.2c-1.5,0.5-3.2,0.7-5,0.6l-0.2-1.9l0,0c-0.6-4.2-1.3-11.6-2.2-21l3.6-2.5 c2.6,5.6,4.9,10.4,5.7,11.9c0-1.4,0-2.8,0-4.2c0-2.5,0.1-5.7,0.1-8.2c1.1-0.4,1.8-0.5,2.3-0.5c0.5,0,1.4,0.2,2.7,0.6 c-0.1,2.4-0.1,5.4-0.1,7.7c0,5.9,0.2,11.6,0.6,17.3l-2.8,0.7C110.3,24.9,108.4,22,106.3,18.5z"/><path class="st1" d="M130.5,24.5c-1.6-0.6-2.7-0.7-3.1-0.7c-0.9,0-1.8,0.1-2.5,0.1c-1.4,0.1-3.9,0.9-7.7,2.2l-1.9-2.3 c1.2-2.1,2.6-4.8,3.8-6.9l1-1.9c0.4-0.7,2-3.7,3.2-5.5c0.9-1.5,0.7-1.1,1.3-2.4C122.7,7.1,121,7,119.2,7c-1.2,0-2.7,0.3-3.1,0.5 c-0.1-0.8-0.1-2-0.1-2.6c0-0.7,0.3-1.6,0.7-2.9l13.3,1.1c0.1,0.7,0.5,2.3,0.8,2.7l-1.3,2.3c-0.6,1-2,3.5-3.2,5.6 c-0.7,1.2-1.3,2.3-1.8,3.2c-0.3,0.6-0.7,1.4-1.2,2.4l-0.4,0.7c2-0.4,4.3-0.7,6.2-0.7c1.2,0.1,1.7,0.2,2,0.2v2.2 C131.1,22.3,130.9,23.5,130.5,24.5z"/><path class="st1" d="M134.5,25l-0.2-9.3c-0.6,0-1.8,0.2-1.8,0.2l0-4.3c0.3,0,1.5-0.2,1.7-0.2c0-2.6-0.1-5.9-0.1-8.2 c0.6,0,2.7-0.1,3.3-0.1c0.5,0,4.2-0.2,8.5-0.5c0.4,1.2,0.4,1.8,0.4,2.3c0,0.4,0,0.6-0.2,1.9c-2.4,0.2-2.7,0.2-3,0.2 c-1.3,0.1-1.6,0.1-3.8,0.2c0,1.2,0,2.4,0,3.5c1.7-0.2,4.6-0.6,6.2-0.9c0.3,1,0.5,2.7,0.3,4.2c-3.9,0.7-4.3,0.8-6.4,1.1l0.1,3.3 c1.8-0.5,4.4-1.1,6.8-1.4c0.4,1.4,0.4,3.5,0.3,4.4C144,22,138.1,23.4,134.5,25z"/></g><g class="st0"><path class="st1" d="M18.6,38.1c-0.4,1-1,3.1-1.5,4.4c-0.9,2.3-1.5,4.2-2.6,6.9c-0.5,1.4-1.8,4.9-3,7.5c-0.6,0-3.2-0.4-3.7-0.3 l-3.2-8.6c-0.3-0.9-1.7-5.9-3.3-11.4c1.2-0.9,2.8-1.3,4.8-1.4l0.5,1.8c0.9,2.9,1.3,5.4,2.1,8.2c0.1,0.3,0.6,2,0.8,2.7l0.4,1.2 c0.6-1.6,1.2-3.5,2-5.8c0.6-1.9,1.5-4.8,2-6.9c0.1-0.3,0.5-1.3,0.6-1.6c2,0.1,3.3,0.5,3.9,1.1l0.8,0.4L18.6,38.1z"/><path class="st1" d="M27.6,57.8c-1.5-1.8-2.8-5.1-3.2-6.5c-0.5,2.4-0.8,5.2-0.9,6.4l-4.7-1.2c0.4-1.7,1.4-6.7,2.6-13.3 c0.1-1,0.8-4,1-5.2l-2.2,0.5c0-0.5,0-1,0-1.6c0-1.6,0.1-3,0.1-3c1.8-0.4,2.3-0.4,2.9-0.4l0.2-1.7l5.1-0.2l-0.5,1.8 c3.9,0.3,6,2.7,6,5.9c0,2.5-1.1,4.7-2.8,6.3v0c-1,1-2.2,1.6-3.7,2c0.7,2.1,1.7,4.1,2.9,5.8c1.4,1.9,3.2,3.3,5.3,4.5l-2.4,4.1 C31.4,61.2,29.4,60.1,27.6,57.8z M28.9,39.4c0-1.2-0.7-1.7-1.7-1.8h-0.1c-0.4,2-0.9,4.6-1.1,5.7v0.1c0.4-0.2,1-0.5,1.5-0.9v0 C28.1,41.9,28.9,41.1,28.9,39.4z"/><path class="st1" d="M35.6,46.6c0-0.2,0-0.5,0-0.8c-0.1-1.6-0.7-8.6-0.9-10.5c1.8-0.5,4.4-0.4,5.3-0.3c0.2,1.4,0.1,2.9,0.2,4.5 c0.1,1.8,0.2,4.6,0.4,7.3c0.1,1.9,0.3,6.7,0.5,8.6L36,55.5l-0.1-4.2C35.8,49.4,35.7,47.9,35.6,46.6z"/><path class="st1" d="M54.2,47.8c0.3,0.7,0.7,2.2,0.8,2.8c0.6,4.3-0.7,8.9-5.1,9.5c-0.5,0.1-1.1,0.1-1.7,0.1 c-1.4-0.1-2.5-0.4-3.4-1c-0.4-0.2-1.7-3-1.7-4.8c1.5-0.5,4.1-0.8,4.1-0.8c0.1,1.4,0.8,2.2,0.8,2.2c0.4,0.2,1.2,0.3,1.5,0.1 c0.9-0.4,0.8-2.2,0.5-4.5c-0.1-1-0.5-2.2-1-3.6c-0.4-1.1-0.8-2.2-1.2-3.2c-0.4-0.9-0.5-1.3-1.1-3l-3.9,0.9c-0.5-1.2-0.9-2.6-1-4.1 l2.3-0.5l10.6-2.2c0.7,1.3,1,2.6,0.9,4.1l-4,0.7C52.1,42.2,52.8,44,54.2,47.8z"/><path class="st1" d="M78.4,36.2c-0.4,2.1-1.4,5.8-2,9.5c-0.6,4.2-1.1,7.8-1.4,9.5l-3.6,1.7l-4.8-9.9l-4.5,9.8l-2.9-0.5 c-0.2-1-0.5-2.5-0.7-3.2c-0.1-0.6-0.2-1-0.3-1.3c-1.3-6.1-1.3-9.5-2.3-15l-0.2-1.5c1.5-0.9,3.3-1.4,5.6-1.6l0.2,2c0,0.3,0,0.7,0,1 c0.1,3.1,0.1,5.6,0.7,9c0.8-2.3,3-6.7,3.5-8.1H68l3.8,9.2c0.1-0.7,0.3-3.3,0.3-4.2c0.4-2.8,1.2-5.6,1.7-7.9c1.8,0,2.5,0.6,3.3,1 C77.4,35.7,78.4,36.2,78.4,36.2z"/><path class="st1" d="M80.4,46.6c0-0.2,0-0.5,0-0.8c-0.1-1.6-0.7-8.6-0.9-10.5c1.8-0.5,4.4-0.4,5.3-0.3c0.2,1.4,0.1,2.9,0.2,4.5 c0.1,1.8,0.2,4.6,0.4,7.3c0.1,1.9,0.3,6.7,0.5,8.6l-5.1,0.1l-0.1-4.2C80.5,49.4,80.5,47.9,80.4,46.6z"/><path class="st1" d="M100.2,57.6c-1.3-0.1-2.2-0.3-3.5-0.3c-1.1,0-2.2-0.1-3.3-0.1c-1.6-0.1-2.8-0.1-3.8-0.3l-1.8-0.3l0.2-2 c0.5-4.4,0.8-7.5,0.9-9.3l0.5-10.3c1.2-0.3,1.9-0.4,2.4-0.4c0.6,0,1.4,0.1,2.7,0.6l-0.1,1.7L94,45.4c-0.1,1.7-0.2,2.8-0.7,6.8 c2.5,0.2,3.4,0.3,5.8,0.4l1.5,0.1C100.8,53.6,100.6,56.2,100.2,57.6z"/><path class="st1" d="M114.5,57.6c-1.3-0.1-2.2-0.3-3.5-0.3c-1.1,0-2.2-0.1-3.3-0.1c-1.6-0.1-2.8-0.1-3.8-0.3l-1.8-0.3l0.2-2 c0.5-4.4,0.8-7.5,0.9-9.3l0.5-10.3c1.2-0.3,1.9-0.4,2.4-0.4c0.6,0,1.4,0.1,2.7,0.6l-0.1,1.7l-0.4,8.6c-0.1,1.7-0.2,2.8-0.7,6.8 c2.5,0.2,3.4,0.3,5.8,0.4l1.5,0.1C115,53.6,114.9,56.2,114.5,57.6z"/><path class="st1" d="M115.5,46.6c0-0.2,0-0.5,0-0.8c-0.1-1.6-0.7-8.6-0.9-10.5c1.8-0.5,4.4-0.4,5.3-0.3c0.2,1.4,0.1,2.9,0.2,4.5 c0.1,1.8,0.2,4.6,0.4,7.3c0.1,1.9,0.3,6.7,0.5,8.6l-5.1,0.1l-0.1-4.2C115.6,49.4,115.6,47.9,115.5,46.6z"/><path class="st1" d="M137.3,53c0,1.2,0.1,2.6,0.1,3.5c-0.9,0.6-1.7,1-2.5,1.3c-0.9,0.4-2,0.5-3,0.5c-2.9,0-5.4-1.3-7.4-4 c-0.9-1.2-1.7-3.7-1.7-5.9c0-3.3,0-5.6,1.5-8.9c1.8-3.7,5.3-6,7.9-6c3.4,0,6,1.6,6.4,4.6l0.1,2c-1.8,0.5-3.7,1.4-5.6,1.1 c0.2-1.1,0.2-1.8-0.1-2.7c-0.1-0.2-0.5-0.4-0.9-0.4c-0.8,0-2.5,0.9-3.3,3.4c-0.8,2.4-0.9,4.2-0.9,6.4c0.1,3.5,2.4,5.8,4.4,5.6h0.1 v-0.6c0-1.5,0-2.1,0.1-4.9c-0.1,0-0.1,0-0.2,0l-2.5,0.2l0.1-4.4c3.5-0.5,5.1-0.1,9.9-0.8c0.1,1.7,0.2,2.5,0.2,3v1.7h-2.5 C137.3,49.8,137.3,51.5,137.3,53z"/><path class="st1" d="M143.5,56.5l-0.2-9.3c-0.6,0-1.8,0.2-1.8,0.2l0-4.3c0.3,0,1.5-0.2,1.7-0.2c0-2.6-0.1-5.9-0.1-8.2 c0.6,0,2.7-0.1,3.3-0.1c0.5,0,4.2-0.2,8.5-0.5c0.4,1.2,0.4,1.8,0.4,2.3c0,0.4,0,0.6-0.2,1.9c-2.4,0.2-2.7,0.2-3,0.2 c-1.3,0.1-1.6,0.1-3.8,0.2c0,1.2,0,2.4,0,3.5c1.7-0.2,4.6-0.6,6.2-0.9c0.3,1,0.5,2.7,0.3,4.2c-3.9,0.7-4.3,0.8-6.4,1.1l0.1,3.3 c1.8-0.5,4.4-1.1,6.8-1.4c0.4,1.4,0.4,3.5,0.3,4.4C153,53.6,147.1,54.9,143.5,56.5z"/><path class="st1" d="M165.4,57.8c-1.5-1.8-2.8-5.1-3.2-6.5c-0.5,2.4-0.8,5.2-0.9,6.4l-4.7-1.2c0.4-1.7,1.4-6.7,2.6-13.3 c0.1-1,0.8-4,1-5.2l-2.2,0.5c0-0.5,0-1,0-1.6c0-1.6,0.1-3,0.1-3c1.8-0.4,2.3-0.4,2.9-0.4l0.2-1.7l5.1-0.2l-0.5,1.8 c3.9,0.3,6,2.7,6,5.9c0,2.5-1.1,4.7-2.8,6.3v0c-1,1-2.2,1.6-3.7,2c0.7,2.1,1.7,4.1,2.9,5.8c1.4,1.9,3.2,3.3,5.3,4.5l-2.4,4.1 C169.3,61.2,167.3,60.1,165.4,57.8z M166.7,39.4c0-1.2-0.7-1.7-1.7-1.8H165c-0.4,2-0.9,4.6-1.1,5.7v0.1c0.4-0.2,1-0.5,1.5-0.9v0 C165.9,41.9,166.7,41.1,166.7,39.4z"/><path class="st1" d="M187.1,54.8L187.1,54.8c-0.6,1.2-1.4,2.3-2.7,3.3c-1.2,0.9-2.5,1.3-4,1.3c-1.6,0-3-0.4-4.4-1.4h0 c-0.7-0.4-2.5-3-2.4-5.7c0-0.3,0.1-1.4,0.1-1.7c1.8-0.6,3.5-0.7,5-0.2l-0.1,1.7c-0.1,0.9,0,2,0,2.1c0.2,0.7,1.2,0.7,1.4,0.8 c0.3,0,0.8-0.3,1.5-1c0.5-0.5,0.7-0.9,1-1.6c0.2-0.5,0.4-1.2,0.4-2.1c0-0.5-0.1-1.2-0.2-1.4c-0.4-0.5-1.2-0.7-2.4-0.9 c-1.9-0.3-3.9-0.8-5-2.2c-0.7-0.9-0.9-1.7-1.1-2.5c-0.1-0.6-0.1-1.2-0.1-2v-0.5c0-2,0.2-4.4,1.6-6.1c1.4-1.5,3.2-2,5.2-1.9 c2.4,0.2,4,0.8,4.8,1.7l0,0c0.8,1,1.2,2,1.3,3.2V41l-4.9-0.1V38c0-0.2-0.1-0.5-0.1-0.5c-0.4-0.3-1-0.4-1.2-0.4 c-0.4,0-0.8,0.2-1.2,0.7c-0.4,0.4-0.5,1.7-0.5,2.7c0,0.6,0.1,1.2,0.3,1.8c0.2,0.7,0.8,1.1,1.6,1.2c3,0.4,5.1,1.3,6,2.4 c0.8,1,1.2,2.4,1.2,4.2C188.1,51.8,187.8,53.4,187.1,54.8z"/><path class="st1" d="M191.7,58.3c-1.7,0-2.5-1.2-2.5-2.6c0-1.4,1-2.6,2.6-2.6c1.3,0,2.5,1.1,2.5,2.5 C194.3,56.9,193.3,58.3,191.7,58.3z M190.3,49.7c0,0,0.8-7.7,0.7-8.3c0-0.8,0.5-9,0.5-9l5.5,0.6c-0.1,1.3-0.6,6.4-0.7,7.3 c-0.1,0.9-0.4,2.5-0.6,4.3l-0.7,5.6c0,0-1.5,0.2-2.6,0C191.3,50.1,190.3,49.7,190.3,49.7z"/></g></g></svg>