<?xml version="1.0" standalone="no"?>
<!DOCTYPE svg PUBLIC "-//W3C//DTD SVG 20010904//EN"
 "http://www.w3.org/TR/2001/REC-SVG-20010904/DTD/svg10.dtd">
<svg version="1.0" xmlns="http://www.w3.org/2000/svg"
 width="600.000000pt" height="600.000000pt" viewBox="0 0 600.000000 600.000000"
 preserveAspectRatio="xMidYMid meet">
<metadata>
Created by potrace 1.14, written by Peter Selinger 2001-2017
</metadata>
<g transform="translate(0.000000,600.000000) scale(0.100000,-0.100000)"
fill="#000000" stroke="none">
<path d="M2235 5720 c-134 -23 -187 -40 -325 -103 -121 -56 -262 -168 -351
-280 -50 -63 -159 -249 -159 -272 0 -5 19 -30 42 -55 22 -25 77 -84 121 -132
44 -48 87 -98 95 -110 8 -13 20 -27 26 -33 10 -9 58 -67 134 -161 13 -16 43
-53 65 -83 l42 -54 12 74 c7 41 14 85 17 99 32 192 116 355 226 435 73 53 140
76 245 82 197 12 333 -57 430 -217 41 -67 91 -212 110 -318 7 -42 16 -90 19
-107 3 -16 8 -52 11 -80 2 -27 7 -68 9 -90 9 -75 24 -278 31 -405 4 -68 13
-385 19 -648 2 -84 6 -106 22 -126 26 -33 188 -219 244 -281 25 -28 68 -77 95
-110 28 -32 59 -69 70 -81 11 -12 29 -33 39 -46 44 -52 181 -214 197 -232 17
-18 17 -18 17 5 -1 13 3 92 8 174 15 265 8 1182 -11 1340 -1 17 -6 71 -10 120
-3 50 -8 104 -10 120 -2 17 -9 73 -16 125 -6 52 -13 104 -16 115 -2 11 -6 47
-9 80 -22 251 -152 637 -274 816 -158 231 -372 374 -643 428 -29 6 -65 13 -82
17 -74 15 -341 11 -440 -6z"/>
<path d="M852 5710 c-66 -27 -167 -110 -213 -177 -43 -62 -52 -123 -25 -175
26 -52 71 -76 168 -90 39 -5 84 -16 99 -24 15 -7 69 -62 120 -121 51 -60 111
-128 133 -153 23 -25 66 -74 96 -109 30 -35 60 -70 67 -77 7 -7 13 -19 13 -26
0 -7 24 -38 53 -69 29 -30 73 -80 99 -110 54 -63 81 -95 112 -129 12 -14 56
-64 96 -110 41 -47 89 -101 106 -120 18 -19 51 -56 74 -82 23 -26 46 -45 51
-42 5 3 9 0 9 -6 0 -15 51 -77 230 -280 47 -53 108 -123 135 -155 28 -32 55
-63 60 -69 6 -6 46 -52 90 -101 44 -50 82 -92 85 -95 3 -3 37 -41 75 -84 39
-44 77 -87 85 -96 52 -57 106 -118 185 -210 50 -58 105 -121 123 -142 45 -49
82 -100 82 -112 0 -6 18 -31 41 -56 22 -25 52 -61 67 -80 15 -19 32 -40 38
-46 5 -6 30 -35 55 -64 24 -29 49 -58 54 -64 41 -43 149 -172 189 -225 36 -48
54 -85 71 -145 13 -45 35 -120 49 -169 14 -48 26 -91 26 -95 0 -4 4 -1 8 5 5
8 17 -14 31 -60 52 -161 283 -565 402 -702 10 -11 101 -118 202 -237 102 -119
195 -227 207 -240 12 -13 45 -50 73 -83 139 -162 191 -198 286 -197 57 0 109
22 152 64 13 12 53 46 189 156 138 113 202 189 214 258 3 16 13 34 21 40 14
10 14 19 4 59 -12 47 -57 112 -132 189 -19 19 -54 58 -78 87 -24 28 -53 61
-64 73 -11 12 -38 44 -60 70 -22 27 -44 54 -50 60 -5 6 -32 38 -60 71 -95 114
-223 253 -310 335 -193 184 -451 357 -725 486 -63 30 -123 59 -132 64 -10 6
-24 10 -32 10 -17 0 -96 80 -216 220 -46 52 -106 122 -135 155 -29 33 -69 80
-90 105 -21 25 -77 88 -125 140 -48 52 -102 113 -121 134 -19 22 -64 72 -100
110 -37 39 -108 120 -159 181 -85 101 -171 199 -245 280 -88 95 -217 236 -256
280 -24 28 -46 52 -49 55 -3 3 -30 34 -60 70 -30 36 -57 67 -60 70 -14 12
-263 303 -339 394 -46 56 -110 130 -141 166 -32 36 -74 85 -94 109 -35 41
-148 166 -282 311 -33 36 -82 92 -110 125 -27 33 -62 73 -77 90 -63 67 -80
110 -86 219 -6 85 -11 108 -30 135 -38 52 -110 74 -169 51z"/>
<path d="M1283 4679 c0 -8 -4 -30 -8 -49 -4 -19 -9 -44 -11 -55 -1 -11 -8 -47
-14 -80 -5 -33 -13 -78 -16 -100 -2 -22 -6 -51 -9 -65 -3 -24 -10 -80 -20
-165 -2 -22 -7 -79 -10 -125 -4 -47 -8 -105 -10 -130 -22 -249 -22 -1079 0
-1315 2 -27 7 -88 10 -135 8 -124 14 -189 20 -240 3 -25 8 -67 11 -95 2 -27 6
-59 9 -71 3 -12 7 -36 9 -55 3 -19 8 -52 11 -74 24 -170 91 -432 147 -578 124
-323 350 -554 641 -653 248 -85 569 -91 827 -16 365 107 615 410 741 895 27
106 28 113 7 168 -9 26 -15 49 -12 52 3 3 -9 51 -26 107 -31 102 -34 113 -46
180 -3 19 -18 51 -33 70 -15 19 -34 46 -43 60 -9 14 -29 39 -45 56 -15 16 -59
66 -98 109 -38 44 -74 85 -80 91 -34 37 -136 153 -154 174 l-20 25 -2 -50 c-5
-211 -27 -512 -49 -660 -5 -33 -12 -80 -15 -105 -26 -187 -105 -383 -192 -475
-86 -90 -171 -126 -313 -131 -125 -4 -204 18 -286 78 -133 98 -233 321 -259
578 -1 14 -5 43 -8 65 -16 106 -28 231 -42 455 -18 265 -24 1087 -10 1385 4
94 7 178 7 188 -1 10 -17 34 -36 55 -19 20 -44 47 -54 60 -11 12 -47 53 -79
90 -77 86 -220 249 -292 331 -104 120 -148 164 -148 150z"/>
</g>
</svg>
